<svg xmlns="http://www.w3.org/2000/svg" aria-hidden="true" style="position:absolute;width:0;height:0;overflow:hidden">
  <defs>
    <symbol id="facebook" viewBox="0 0 28 28">
      <path d="M17.08 4.06h.84v3.15h-1.05c-.42 0-.84 0-1.05.21s-.21.42-.21.91v1.12h2.31v2.66h-2.31v11.55h-3.57V12.04h-1.89V9.38h1.89v-.91c0-1.54.21-2.66.63-3.15.63-.91 1.89-1.33 3.78-1.33.21.07.42.07.63.07"/>
    </symbol>
    <symbol id="instagram" viewBox="0 0 28 28">
      <path d="M25.128 9.411a8.1 8.1 0 0 0-.521-2.751 5.73 5.73 0 0 0-3.276-3.27 8.2 8.2 0 0 0-2.719-.522C17.416 2.815 17.036 2.8 14 2.8s-3.427 0-4.615.068c-.93.02-1.848.195-2.718.522a5.73 5.73 0 0 0-3.275 3.27 8.1 8.1 0 0 0-.521 2.713c-.054 1.196-.07 1.575-.07 4.607s0 3.42.07 4.607c.018.93.194 1.846.52 2.716a5.73 5.73 0 0 0 3.277 3.269 8.2 8.2 0 0 0 2.718.558c1.198.054 1.578.07 4.615.07s3.427 0 4.615-.07a8.2 8.2 0 0 0 2.719-.52 5.74 5.74 0 0 0 3.275-3.27 8.2 8.2 0 0 0 .521-2.715c.054-1.195.07-1.574.07-4.608-.002-3.032-.002-3.417-.072-4.606M13.99 19.715a5.745 5.745 0 0 1-5.75-5.741 5.744 5.744 0 0 1 5.75-5.741c3.175 0 5.75 2.57 5.75 5.74a5.746 5.746 0 0 1-5.75 5.742m5.98-10.356a1.338 1.338 0 1 1 0-2.677 1.339 1.339 0 1 1 0 2.677"/>
      <path d="M13.993 17.479a3.503 3.503 0 1 0 0-7.007 3.503 3.503 0 0 0 0 7.007"/>
    </symbol>
    <symbol id="youtube" viewBox="0 0 28 28">
      <path d="M21.21 5.25c-1.19-.07-3.64-.14-7.35-.14h-.49q-5.355 0-7.14.21c-1.61.14-2.73.56-3.36 1.12-.56.49-.98 1.4-1.12 2.59-.07.77-.14 2.38-.14 4.83v.35c0 2.31.07 3.92.21 4.69.21 1.12.56 1.96 1.26 2.45q1.05.84 3.57 1.05c1.19.07 3.64.14 7.35.14h.49q5.355 0 7.14-.21c1.61-.14 2.73-.56 3.36-1.12.56-.49.98-1.4 1.12-2.59.07-.77.14-2.38.14-4.83v-.35c0-2.31-.07-3.92-.21-4.69-.21-1.12-.56-1.96-1.26-2.45q-1.05-.84-3.57-1.05m-2.73 8.61-7.7 4.62V9.24z"/>
    </symbol>
    <symbol id="burger" viewBox="0 0 32 32">
      <path stroke="#121417" stroke-linecap="round" stroke-width="3" d="M6.37 8.379H30.5M6.37 22.318H30.5m-16.478-6.97H30.5"/>
    </symbol>
    <symbol id="big-burger" viewBox="0 0 40 28">
      <path stroke="#121417" stroke-linecap="round" stroke-width="3" d="M7.587 4.439H38.5M7.587 21.409H38.5M17.152 12.924H38.5"/>
    </symbol>
    <symbol id="arrow" viewBox="0 0 24 24">
      <path d="M12.71 13.4001C12.6171 13.4938 12.5065 13.5682 12.3846 13.619C12.2627 13.6698 12.132 13.6959 12 13.6959C11.868 13.6959 11.7373 13.6698 11.6154 13.619C11.4936 13.5682 11.383 13.4938 11.29 13.4001L6.71002 8.81011C6.61705 8.71638 6.50645 8.64199 6.38459 8.59122C6.26273 8.54045 6.13203 8.51431 6.00002 8.51431C5.868 8.51431 5.7373 8.54045 5.61544 8.59122C5.49358 8.64199 5.38298 8.71638 5.29001 8.81011C5.10376 8.99747 4.99922 9.25092 4.99922 9.51511C4.99922 9.7793 5.10376 10.0327 5.29001 10.2201L9.88002 14.8101C10.4425 15.3719 11.205 15.6875 12 15.6875C12.795 15.6875 13.5575 15.3719 14.12 14.8101L18.71 10.2201C18.8948 10.0338 18.9989 9.78245 19 9.52011C19.0008 9.3885 18.9756 9.25804 18.9258 9.1362C18.876 9.01436 18.8027 8.90355 18.71 8.81011C18.6171 8.71638 18.5065 8.64199 18.3846 8.59122C18.2628 8.54045 18.132 8.51431 18 8.51431C17.868 8.51431 17.7373 8.54045 17.6155 8.59122C17.4936 8.64199 17.383 8.71638 17.29 8.81011L12.71 13.4001Z"/>
    </symbol>
    <symbol id="check" viewBox="0 0 10 8">
      <path d="M8.75 0.75L3.25 6.75L0.75 4.02273" fill="none" stroke="#fff" stroke-width="1.5" stroke-linecap="round" stroke-linejoin="round"/>
    </symbol>
    <symbol id="radio-button" viewBox="0 0 24 24">
      <rect x="3" y="3" width="18" height="18" rx="9" stroke="var(--outer-color, var(--black-20))" stroke-width="2"
            fill="none"/>
      <rect x="7" y="7" width="10" height="10" rx="5" fill="var(--inner-color, transparent)"/>
    </symbol>
  </defs>
</svg>