<svg xmlns="http://www.w3.org/2000/svg" aria-hidden="true" style="position:absolute;width:0;height:0;overflow:hidden"
     version="1.1">    
    <defs>
        <symbol id="icon-logo" viewBox="0 0 182 27">
            <path fill="currentColor" id="logo" d="M6.31 21.3C5.21667 21.3 4.25667 21.0633 3.43 20.59C2.60333 20.1167 1.95667 19.46 1.49 18.62C1.03 17.78 0.8 16.8133 0.8 15.72C0.8 14.54 1.02667 13.5167 1.48 12.65C1.93333 11.7767 2.56333 11.1 3.37 10.62C4.17667 10.14 5.11 9.9 6.17 9.9C7.29 9.9 8.24 10.1633 9.02 10.69C9.80667 11.21 10.39 11.9467 10.77 12.9C11.15 13.8533 11.2933 14.9767 11.2 16.27H8.81V15.39C8.80333 14.2167 8.59667 13.36 8.19 12.82C7.78333 12.28 7.14333 12.01 6.27 12.01C5.28333 12.01 4.55 12.3167 4.07 12.93C3.59 13.5367 3.35 14.4267 3.35 15.6C3.35 16.6933 3.59 17.54 4.07 18.14C4.55 18.74 5.25 19.04 6.17 19.04C6.76333 19.04 7.27333 18.91 7.7 18.65C8.13333 18.3833 8.46667 18 8.7 17.5L11.08 18.22C10.6667 19.1933 10.0267 19.95 9.16 20.49C8.3 21.03 7.35 21.3 6.31 21.3ZM2.59 16.27V14.45H10.02V16.27H2.59ZM20.6083 21V15.8C20.6083 15.46 20.5849 15.0833 20.5383 14.67C20.4916 14.2567 20.3816 13.86 20.2083 13.48C20.0416 13.0933 19.7883 12.7767 19.4483 12.53C19.1149 12.2833 18.6616 12.16 18.0883 12.16C17.7816 12.16 17.4783 12.21 17.1783 12.31C16.8783 12.41 16.6049 12.5833 16.3583 12.83C16.1183 13.07 15.9249 13.4033 15.7783 13.83C15.6316 14.25 15.5583 14.79 15.5583 15.45L14.1283 14.84C14.1283 13.92 14.3049 13.0867 14.6583 12.34C15.0183 11.5933 15.5449 11 16.2383 10.56C16.9316 10.1133 17.7849 9.89 18.7983 9.89C19.5983 9.89 20.2583 10.0233 20.7783 10.29C21.2983 10.5567 21.7116 10.8967 22.0183 11.31C22.3249 11.7233 22.5516 12.1633 22.6983 12.63C22.8449 13.0967 22.9383 13.54 22.9783 13.96C23.0249 14.3733 23.0483 14.71 23.0483 14.97V21H20.6083ZM13.1183 21V10.2H15.2683V13.55H15.5583V21H13.1183ZM30.1978 26.1C29.5978 26.1 29.0211 26.0067 28.4678 25.82C27.9211 25.6333 27.4278 25.3633 26.9878 25.01C26.5478 24.6633 26.1878 24.2433 25.9078 23.75L28.1278 22.65C28.3345 23.0433 28.6245 23.3333 28.9978 23.52C29.3778 23.7133 29.7811 23.81 30.2078 23.81C30.7078 23.81 31.1545 23.72 31.5478 23.54C31.9411 23.3667 32.2445 23.1067 32.4578 22.76C32.6778 22.42 32.7811 21.9933 32.7678 21.48V18.41H33.0678V10.2H35.1778V21.52C35.1778 21.7933 35.1645 22.0533 35.1378 22.3C35.1178 22.5533 35.0811 22.8 35.0278 23.04C34.8678 23.74 34.5611 24.3133 34.1078 24.76C33.6545 25.2133 33.0911 25.55 32.4178 25.77C31.7511 25.99 31.0111 26.1 30.1978 26.1ZM29.9878 21.3C28.9945 21.3 28.1278 21.05 27.3878 20.55C26.6478 20.05 26.0745 19.37 25.6678 18.51C25.2611 17.65 25.0578 16.68 25.0578 15.6C25.0578 14.5067 25.2611 13.5333 25.6678 12.68C26.0811 11.82 26.6645 11.1433 27.4178 10.65C28.1711 10.15 29.0578 9.9 30.0778 9.9C31.1045 9.9 31.9645 10.15 32.6578 10.65C33.3578 11.1433 33.8878 11.82 34.2478 12.68C34.6078 13.54 34.7878 14.5133 34.7878 15.6C34.7878 16.6733 34.6078 17.6433 34.2478 18.51C33.8878 19.37 33.3511 20.05 32.6378 20.55C31.9245 21.05 31.0411 21.3 29.9878 21.3ZM30.3578 19.14C31.0045 19.14 31.5245 18.9933 31.9178 18.7C32.3178 18.4 32.6078 17.9833 32.7878 17.45C32.9745 16.9167 33.0678 16.3 33.0678 15.6C33.0678 14.8933 32.9745 14.2767 32.7878 13.75C32.6078 13.2167 32.3245 12.8033 31.9378 12.51C31.5511 12.21 31.0511 12.06 30.4378 12.06C29.7911 12.06 29.2578 12.22 28.8378 12.54C28.4178 12.8533 28.1078 13.28 27.9078 13.82C27.7078 14.3533 27.6078 14.9467 27.6078 15.6C27.6078 16.26 27.7045 16.86 27.8978 17.4C28.0978 17.9333 28.4011 18.3567 28.8078 18.67C29.2145 18.9833 29.7311 19.14 30.3578 19.14ZM38.182 21V6.3H40.592V21H38.182ZM43.7875 8.56V6.35H46.1975V8.56H43.7875ZM43.7875 21V10.2H46.1975V21H43.7875ZM53.363 21.3C52.0296 21.3 50.9463 21 50.113 20.4C49.2796 19.8 48.773 18.9567 48.593 17.87L51.053 17.49C51.1796 18.0233 51.4596 18.4433 51.893 18.75C52.3263 19.0567 52.873 19.21 53.533 19.21C54.113 19.21 54.5596 19.0967 54.873 18.87C55.193 18.6367 55.353 18.32 55.353 17.92C55.353 17.6733 55.293 17.4767 55.173 17.33C55.0596 17.1767 54.8063 17.03 54.413 16.89C54.0196 16.75 53.4163 16.5733 52.603 16.36C51.6963 16.12 50.9763 15.8633 50.443 15.59C49.9096 15.31 49.5263 14.98 49.293 14.6C49.0596 14.22 48.943 13.76 48.943 13.22C48.943 12.5467 49.1196 11.96 49.473 11.46C49.8263 10.96 50.3196 10.5767 50.953 10.31C51.5863 10.0367 52.333 9.9 53.193 9.9C54.033 9.9 54.7763 10.03 55.423 10.29C56.0763 10.55 56.603 10.92 57.003 11.4C57.403 11.88 57.6496 12.4433 57.743 13.09L55.283 13.53C55.223 13.07 55.013 12.7067 54.653 12.44C54.2996 12.1733 53.8263 12.0233 53.233 11.99C52.6663 11.9567 52.2096 12.0433 51.863 12.25C51.5163 12.45 51.343 12.7333 51.343 13.1C51.343 13.3067 51.413 13.4833 51.553 13.63C51.693 13.7767 51.973 13.9233 52.393 14.07C52.8196 14.2167 53.453 14.3967 54.293 14.61C55.153 14.83 55.8396 15.0833 56.353 15.37C56.873 15.65 57.2463 15.9867 57.473 16.38C57.7063 16.7733 57.823 17.25 57.823 17.81C57.823 18.8967 57.4263 19.75 56.633 20.37C55.8463 20.99 54.7563 21.3 53.363 21.3ZM67.4833 21V15.8C67.4833 15.46 67.4599 15.0833 67.4133 14.67C67.3666 14.2567 67.2566 13.86 67.0833 13.48C66.9166 13.0933 66.6633 12.7767 66.3233 12.53C65.9899 12.2833 65.5366 12.16 64.9633 12.16C64.6566 12.16 64.3533 12.21 64.0533 12.31C63.7533 12.41 63.4799 12.5833 63.2333 12.83C62.9933 13.07 62.7999 13.4033 62.6533 13.83C62.5066 14.25 62.4333 14.79 62.4333 15.45L61.0033 14.84C61.0033 13.92 61.1799 13.0867 61.5333 12.34C61.8933 11.5933 62.4199 11 63.1133 10.56C63.8066 10.1133 64.6599 9.89 65.6733 9.89C66.4733 9.89 67.1333 10.0233 67.6533 10.29C68.1733 10.5567 68.5866 10.8967 68.8933 11.31C69.1999 11.7233 69.4266 12.1633 69.5733 12.63C69.7199 13.0967 69.8133 13.54 69.8533 13.96C69.8999 14.3733 69.9233 14.71 69.9233 14.97V21H67.4833ZM59.9933 21V6.6H62.1433V14.18H62.4333V21H59.9933ZM177.034 21V18.53H179.504V21H177.034Z"/>
        <path id="logo-accent" d="M77.4428 21.3C76.3495 21.3 75.3895 21.0633 74.5628 20.59C73.7361 20.1167 73.0895 19.46 72.6228 18.62C72.1628 17.78 71.9328 16.8133 71.9328 15.72C71.9328 14.54 72.1595 13.5167 72.6128 12.65C73.0661 11.7767 73.6961 11.1 74.5028 10.62C75.3095 10.14 76.2428 9.9 77.3028 9.9C78.4228 9.9 79.3728 10.1633 80.1528 10.69C80.9395 11.21 81.5228 11.9467 81.9028 12.9C82.2828 13.8533 82.4261 14.9767 82.3328 16.27H79.9428V15.39C79.9361 14.2167 79.7295 13.36 79.3228 12.82C78.9161 12.28 78.2761 12.01 77.4028 12.01C76.4161 12.01 75.6828 12.3167 75.2028 12.93C74.7228 13.5367 74.4828 14.4267 74.4828 15.6C74.4828 16.6933 74.7228 17.54 75.2028 18.14C75.6828 18.74 76.3828 19.04 77.3028 19.04C77.8961 19.04 78.4061 18.91 78.8328 18.65C79.2661 18.3833 79.5995 18 79.8328 17.5L82.2128 18.22C81.7995 19.1933 81.1595 19.95 80.2928 20.49C79.4328 21.03 78.4828 21.3 77.4428 21.3ZM73.7228 16.27V14.45H81.1528V16.27H73.7228ZM82.9734 21L86.9234 15.54L83.0534 10.2H85.8934L88.3234 13.65L90.7134 10.2H93.5534L89.6834 15.54L93.6534 21H90.8134L88.3234 17.43L85.8134 21H82.9734ZM99.547 21.3C98.4337 21.3 97.4837 21.0533 96.697 20.56C95.9104 20.06 95.307 19.38 94.887 18.52C94.4737 17.66 94.2637 16.6867 94.257 15.6C94.2637 14.4933 94.4804 13.5133 94.907 12.66C95.3404 11.8 95.9537 11.1267 96.747 10.64C97.5404 10.1467 98.4837 9.9 99.577 9.9C100.804 9.9 101.84 10.21 102.687 10.83C103.54 11.4433 104.097 12.2833 104.357 13.35L101.957 14C101.77 13.42 101.46 12.97 101.027 12.65C100.594 12.3233 100.1 12.16 99.547 12.16C98.9204 12.16 98.4037 12.31 97.997 12.61C97.5904 12.9033 97.2904 13.31 97.097 13.83C96.9037 14.35 96.807 14.94 96.807 15.6C96.807 16.6267 97.037 17.4567 97.497 18.09C97.957 18.7233 98.6404 19.04 99.547 19.04C100.187 19.04 100.69 18.8933 101.057 18.6C101.43 18.3067 101.71 17.8833 101.897 17.33L104.357 17.88C104.024 18.98 103.44 19.8267 102.607 20.42C101.774 21.0067 100.754 21.3 99.547 21.3ZM110.978 21.3C109.885 21.3 108.925 21.0633 108.098 20.59C107.271 20.1167 106.625 19.46 106.158 18.62C105.698 17.78 105.468 16.8133 105.468 15.72C105.468 14.54 105.695 13.5167 106.148 12.65C106.601 11.7767 107.231 11.1 108.038 10.62C108.845 10.14 109.778 9.9 110.838 9.9C111.958 9.9 112.908 10.1633 113.688 10.69C114.475 11.21 115.058 11.9467 115.438 12.9C115.818 13.8533 115.961 14.9767 115.868 16.27H113.478V15.39C113.471 14.2167 113.265 13.36 112.858 12.82C112.451 12.28 111.811 12.01 110.938 12.01C109.951 12.01 109.218 12.3167 108.738 12.93C108.258 13.5367 108.018 14.4267 108.018 15.6C108.018 16.6933 108.258 17.54 108.738 18.14C109.218 18.74 109.918 19.04 110.838 19.04C111.431 19.04 111.941 18.91 112.368 18.65C112.801 18.3833 113.135 18 113.368 17.5L115.748 18.22C115.335 19.1933 114.695 19.95 113.828 20.49C112.968 21.03 112.018 21.3 110.978 21.3ZM107.258 16.27V14.45H114.688V16.27H107.258ZM118.299 21V6.3H120.709V21H118.299ZM123.905 21V6.3H126.315V21H123.905ZM134.22 21.3C133.127 21.3 132.167 21.0633 131.34 20.59C130.513 20.1167 129.867 19.46 129.4 18.62C128.94 17.78 128.71 16.8133 128.71 15.72C128.71 14.54 128.937 13.5167 129.39 12.65C129.843 11.7767 130.473 11.1 131.28 10.62C132.087 10.14 133.02 9.9 134.08 9.9C135.2 9.9 136.15 10.1633 136.93 10.69C137.717 11.21 138.3 11.9467 138.68 12.9C139.06 13.8533 139.203 14.9767 139.11 16.27H136.72V15.39C136.713 14.2167 136.507 13.36 136.1 12.82C135.693 12.28 135.053 12.01 134.18 12.01C133.193 12.01 132.46 12.3167 131.98 12.93C131.5 13.5367 131.26 14.4267 131.26 15.6C131.26 16.6933 131.5 17.54 131.98 18.14C132.46 18.74 133.16 19.04 134.08 19.04C134.673 19.04 135.183 18.91 135.61 18.65C136.043 18.3833 136.377 18 136.61 17.5L138.99 18.22C138.577 19.1933 137.937 19.95 137.07 20.49C136.21 21.03 135.26 21.3 134.22 21.3ZM130.5 16.27V14.45H137.93V16.27H130.5ZM148.518 21V15.8C148.518 15.46 148.495 15.0833 148.448 14.67C148.402 14.2567 148.292 13.86 148.118 13.48C147.952 13.0933 147.698 12.7767 147.358 12.53C147.025 12.2833 146.572 12.16 145.998 12.16C145.692 12.16 145.388 12.21 145.088 12.31C144.788 12.41 144.515 12.5833 144.268 12.83C144.028 13.07 143.835 13.4033 143.688 13.83C143.542 14.25 143.468 14.79 143.468 15.45L142.038 14.84C142.038 13.92 142.215 13.0867 142.568 12.34C142.928 11.5933 143.455 11 144.148 10.56C144.842 10.1133 145.695 9.89 146.708 9.89C147.508 9.89 148.168 10.0233 148.688 10.29C149.208 10.5567 149.622 10.8967 149.928 11.31C150.235 11.7233 150.462 12.1633 150.608 12.63C150.755 13.0967 150.848 13.54 150.888 13.96C150.935 14.3733 150.958 14.71 150.958 14.97V21H148.518ZM141.028 21V10.2H143.178V13.55H143.468V21H141.028ZM158.082 21.3C156.969 21.3 156.019 21.0533 155.232 20.56C154.446 20.06 153.842 19.38 153.422 18.52C153.009 17.66 152.799 16.6867 152.792 15.6C152.799 14.4933 153.016 13.5133 153.442 12.66C153.876 11.8 154.489 11.1267 155.282 10.64C156.076 10.1467 157.019 9.9 158.112 9.9C159.339 9.9 160.376 10.21 161.222 10.83C162.076 11.4433 162.632 12.2833 162.892 13.35L160.492 14C160.306 13.42 159.996 12.97 159.562 12.65C159.129 12.3233 158.636 12.16 158.082 12.16C157.456 12.16 156.939 12.31 156.532 12.61C156.126 12.9033 155.826 13.31 155.632 13.83C155.439 14.35 155.342 14.94 155.342 15.6C155.342 16.6267 155.572 17.4567 156.032 18.09C156.492 18.7233 157.176 19.04 158.082 19.04C158.722 19.04 159.226 18.8933 159.592 18.6C159.966 18.3067 160.246 17.8833 160.432 17.33L162.892 17.88C162.559 18.98 161.976 19.8267 161.142 20.42C160.309 21.0067 159.289 21.3 158.082 21.3ZM169.513 21.3C168.42 21.3 167.46 21.0633 166.633 20.59C165.806 20.1167 165.16 19.46 164.693 18.62C164.233 17.78 164.003 16.8133 164.003 15.72C164.003 14.54 164.23 13.5167 164.683 12.65C165.136 11.7767 165.766 11.1 166.573 10.62C167.38 10.14 168.313 9.9 169.373 9.9C170.493 9.9 171.443 10.1633 172.223 10.69C173.01 11.21 173.593 11.9467 173.973 12.9C174.353 13.8533 174.496 14.9767 174.403 16.27H172.013V15.39C172.006 14.2167 171.8 13.36 171.393 12.82C170.986 12.28 170.346 12.01 169.473 12.01C168.486 12.01 167.753 12.3167 167.273 12.93C166.793 13.5367 166.553 14.4267 166.553 15.6C166.553 16.6933 166.793 17.54 167.273 18.14C167.753 18.74 168.453 19.04 169.373 19.04C169.966 19.04 170.476 18.91 170.903 18.65C171.336 18.3833 171.67 18 171.903 17.5L174.283 18.22C173.87 19.1933 173.23 19.95 172.363 20.49C171.503 21.03 170.553 21.3 169.513 21.3ZM165.793 16.27V14.45H173.223V16.27H165.793Z" fill="#4DC274"/>
        </symbol>
        <symbol id="icon-facebook" viewBox="0 0 28 28">
                <path d="M17.08 4.06014C17.29 4.06014 17.5 4.06014 17.92 4.06014V7.21014C17.71 7.21014 17.29 7.21014 16.87 7.21014C16.45 7.21014 16.03 7.21014 15.82 7.42014C15.61 7.63014 15.61 7.84014 15.61 8.33014C15.61 8.75014 15.61 9.03014 15.61 9.45014H17.92V12.1101H15.61V23.6601H12.04V12.0401H10.15V9.38014H12.04V8.47014C12.04 6.93014 12.25 5.81014 12.67 5.32014C13.3 4.41014 14.56 3.99014 16.45 3.99014C16.66 4.06014 16.87 4.06014 17.08 4.06014Z"/>
        </symbol>
        <symbol id="icon-instagram" viewBox="0 0 28 28">
            <path d="M25.1278 9.41147C25.1142 8.47141 24.94 7.5388 24.6067 6.65959C24.0233 5.15823 22.8354 3.97104 21.3315 3.38987C20.462 3.06327 19.5428 2.88817 18.6123 2.8683C17.4157 2.81491 17.0363 2.8 13.9987 2.8C10.9612 2.8 10.5718 2.8 9.38391 2.8683C8.45472 2.88817 7.53548 3.06327 6.666 3.38987C5.16214 3.97104 3.97298 5.15823 3.39084 6.65959C3.06369 7.52762 2.88706 8.44533 2.86965 9.37297C2.81616 10.5688 2.79999 10.9476 2.79999 13.9801C2.79999 17.0127 2.79999 17.4001 2.86965 18.5873C2.8883 19.5162 3.06369 20.4326 3.39084 21.3032C3.97422 22.8033 5.16214 23.9905 6.66725 24.5716C7.533 24.9094 8.45223 25.1007 9.38515 25.1305C10.583 25.1839 10.9624 25.2 14 25.2C17.0376 25.2 17.4269 25.2 18.6148 25.1305C19.544 25.1118 20.4632 24.9367 21.334 24.6101C22.8378 24.0277 24.0258 22.8405 24.6091 21.3404C24.9363 20.4711 25.1117 19.5547 25.1303 18.6246C25.1838 17.4299 25.2 17.0512 25.2 14.0174C25.1975 10.9849 25.1975 10.5999 25.1278 9.41147ZM13.9913 19.7149C10.8144 19.7149 8.24077 17.1455 8.24077 13.9739C8.24077 10.8023 10.8144 8.23298 13.9913 8.23298C17.1657 8.23298 19.7418 10.8023 19.7418 13.9739C19.7418 17.1455 17.1657 19.7149 13.9913 19.7149ZM19.9707 9.35931C19.2281 9.35931 18.6298 8.76075 18.6298 8.02063C18.6298 7.2805 19.2281 6.68194 19.9707 6.68194C20.7108 6.68194 21.3103 7.2805 21.3103 8.02063C21.3103 8.76075 20.7108 9.35931 19.9707 9.35931Z" fill="#121417"/>
            <path d="M13.9931 17.479C15.928 17.479 17.4966 15.9104 17.4966 13.9755C17.4966 12.0405 15.928 10.472 13.9931 10.472C12.0581 10.472 10.4896 12.0405 10.4896 13.9755C10.4896 15.9104 12.0581 17.479 13.9931 17.479Z"/>
        </symbol>
        <symbol id="icon-youtube" viewBox="0 0 28 28">
            <path fill-rule="evenodd" clip-rule="evenodd" d="M21.21 5.24986C20.02 5.17986 17.57 5.10986 13.86 5.10986H13.37C9.80004 5.10986 7.42007 5.17986 6.23007 5.31986C4.62007 5.45986 3.50004 5.87986 2.87004 6.43986C2.31004 6.92986 1.89005 7.83986 1.75005 9.02986C1.68005 9.79986 1.61005 11.4099 1.61005 13.8599V14.2099C1.61005 16.5199 1.68004 18.1299 1.82004 18.8999C2.03004 20.0199 2.38007 20.8599 3.08007 21.3499C3.78007 21.9099 4.97005 22.2599 6.65005 22.3999C7.84005 22.4699 10.2901 22.5399 14.0001 22.5399H14.4901C18.0601 22.5399 20.4401 22.4699 21.6301 22.3299C23.2401 22.1899 24.3601 21.7699 24.9901 21.2099C25.5501 20.7199 25.97 19.8099 26.11 18.6199C26.18 17.8499 26.2501 16.2399 26.2501 13.7899V13.4399C26.2501 11.1299 26.1801 9.51986 26.0401 8.74986C25.8301 7.62986 25.4801 6.78986 24.7801 6.29986C24.0801 5.73986 22.89 5.38986 21.21 5.24986ZM18.4801 13.8599L10.7801 18.4799V9.23986L18.4801 13.8599Z"/>
        </symbol>
        <symbol id="icon-burger-s" viewBox="0 0 32 32">           
            <line x1="6.36963" y1="8.37878" x2="30.5001" y2="8.37878" stroke="#121417" stroke-width="3" stroke-linecap="round"/>
            <line x1="6.36963" y1="22.3182" x2="30.5001" y2="22.3182" stroke="#121417" stroke-width="3" stroke-linecap="round"/>
            <line x1="14.0217" y1="15.3485" x2="30.5" y2="15.3485" stroke="#121417" stroke-width="3" stroke-linecap="round"/>
        </symbol>
        <symbol id="icon-burger-m-l" viewBox="0 0 40 28" >
            <line x1="7.58698" y1="4.43939" x2="38.5" y2="4.43939" stroke="#121417" stroke-width="3" stroke-linecap="round"/>
            <line x1="7.58698" y1="21.4091" x2="38.5" y2="21.4091" stroke="#121417" stroke-width="3" stroke-linecap="round"/>
            <line x1="17.1522" y1="12.9242" x2="38.5" y2="12.9242" stroke="#121417" stroke-width="3" stroke-linecap="round"/>
        </symbol>
        <symbol id="icon-arrow" viewBox="0 0 24 24">
            <path d="M12.71 13.4001C12.6171 13.4938 12.5065 13.5682 12.3846 13.619C12.2627 13.6698 12.132 13.6959 12 13.6959C11.868 13.6959 11.7373 13.6698 11.6154 13.619C11.4936 13.5682 11.383 13.4938 11.29 13.4001L6.71002 8.81011C6.61705 8.71638 6.50645 8.64199 6.38459 8.59122C6.26273 8.54045 6.13203 8.51431 6.00002 8.51431C5.868 8.51431 5.7373 8.54045 5.61544 8.59122C5.49358 8.64199 5.38298 8.71638 5.29001 8.81011C5.10376 8.99747 4.99922 9.25092 4.99922 9.51511C4.99922 9.7793 5.10376 10.0327 5.29001 10.2201L9.88002 14.8101C10.4425 15.3719 11.205 15.6875 12 15.6875C12.795 15.6875 13.5575 15.3719 14.12 14.8101L18.71 10.2201C18.8948 10.0338 18.9989 9.78245 19 9.52011C19.0008 9.3885 18.9756 9.25804 18.9258 9.1362C18.876 9.01436 18.8027 8.90355 18.71 8.81011C18.6171 8.71638 18.5065 8.64199 18.3846 8.59122C18.2628 8.54045 18.132 8.51431 18 8.51431C17.868 8.51431 17.7373 8.54045 17.6155 8.59122C17.4936 8.64199 17.383 8.71638 17.29 8.81011L12.71 13.4001Z"/>
        </symbol>
        <symbol id="icon-close" viewBox="0 0 32 32">
            <path d="M24 8L8 24" stroke="white" stroke-width="3" stroke-linecap="round" stroke-linejoin="round"/>
            <path d="M8 8L24 24" stroke="white" stroke-width="3" stroke-linecap="round" stroke-linejoin="round"/>
        </symbol>
        <symbol id="icon-chek" viewBox="0 0 20 20">
            <path d="M16.6667 5L7.50001 14.1667L3.33334 10" stroke="white" stroke-width="2" stroke-linecap="round" stroke-linejoin="round" />
        </symbol>
        <symbol id="icon-radio-button" viewBox="0 0 20 20">
            <rect x="2" y="2" width="16" height="16" rx="8"/>
            <rect x="5" y="5" width="10" height="10" rx="5" />
        </symbol>
    </defs>
</svg>
